<svg width="359" height="230" viewBox="0 0 359 230" fill="none" xmlns="http://www.w3.org/2000/svg">
<rect width="359" height="230" rx="20" fill="url(#paint0_linear_109_142)"/>
<path d="M263.421 137.72C260.501 137.72 257.601 137.34 254.721 136.58C251.841 135.78 249.401 134.66 247.401 133.22L251.181 125.78C252.781 126.94 254.641 127.86 256.761 128.54C258.881 129.22 261.021 129.56 263.181 129.56C265.621 129.56 267.541 129.08 268.941 128.12C270.341 127.16 271.041 125.84 271.041 124.16C271.041 122.56 270.421 121.3 269.181 120.38C267.941 119.46 265.941 119 263.181 119H258.741V112.58L270.441 99.32L271.521 102.8H249.501V95H278.901V101.3L267.261 114.56L262.341 111.74H265.161C270.321 111.74 274.221 112.9 276.861 115.22C279.501 117.54 280.821 120.52 280.821 124.16C280.821 126.52 280.201 128.74 278.961 130.82C277.721 132.86 275.821 134.52 273.261 135.8C270.701 137.08 267.421 137.72 263.421 137.72ZM290.783 137L319.463 95H326.603L297.923 137H290.783ZM294.443 117.68C292.403 117.68 290.603 117.22 289.043 116.3C287.483 115.34 286.243 114 285.323 112.28C284.443 110.52 284.003 108.46 284.003 106.1C284.003 103.74 284.443 101.7 285.323 99.98C286.243 98.26 287.483 96.92 289.043 95.96C290.603 95 292.403 94.52 294.443 94.52C296.483 94.52 298.283 95 299.843 95.96C301.403 96.92 302.623 98.26 303.503 99.98C304.383 101.7 304.823 103.74 304.823 106.1C304.823 108.46 304.383 110.52 303.503 112.28C302.623 114 301.403 115.34 299.843 116.3C298.283 117.22 296.483 117.68 294.443 117.68ZM294.443 112.76C295.763 112.76 296.823 112.22 297.623 111.14C298.423 110.02 298.823 108.34 298.823 106.1C298.823 103.86 298.423 102.2 297.623 101.12C296.823 100 295.763 99.44 294.443 99.44C293.163 99.44 292.103 100 291.263 101.12C290.463 102.2 290.063 103.86 290.063 106.1C290.063 108.3 290.463 109.96 291.263 111.08C292.103 112.2 293.163 112.76 294.443 112.76ZM322.943 137.48C320.943 137.48 319.143 137.02 317.543 136.1C315.983 135.14 314.763 133.8 313.883 132.08C313.003 130.32 312.563 128.26 312.563 125.9C312.563 123.54 313.003 121.5 313.883 119.78C314.763 118.06 315.983 116.72 317.543 115.76C319.143 114.8 320.943 114.32 322.943 114.32C325.023 114.32 326.843 114.8 328.403 115.76C329.963 116.72 331.183 118.06 332.063 119.78C332.943 121.5 333.383 123.54 333.383 125.9C333.383 128.26 332.943 130.32 332.063 132.08C331.183 133.8 329.963 135.14 328.403 136.1C326.843 137.02 325.023 137.48 322.943 137.48ZM322.943 132.56C324.263 132.56 325.323 132.02 326.123 130.94C326.923 129.82 327.323 128.14 327.323 125.9C327.323 123.7 326.923 122.04 326.123 120.92C325.323 119.8 324.263 119.24 322.943 119.24C321.663 119.24 320.603 119.8 319.763 120.92C318.963 122 318.563 123.66 318.563 125.9C318.563 128.14 318.963 129.82 319.763 130.94C320.603 132.02 321.663 132.56 322.943 132.56Z" fill="white" fill-opacity="0.9"/>
<path d="M264.32 171.24C263.44 171.24 262.64 171.113 261.92 170.86C261.2 170.593 260.574 170.187 260.04 169.64C259.52 169.08 259.114 168.367 258.82 167.5C258.54 166.633 258.4 165.6 258.4 164.4C258.4 163.547 258.474 162.767 258.62 162.06C258.767 161.353 258.987 160.713 259.28 160.14C259.574 159.553 259.947 159.04 260.4 158.6C260.867 158.147 261.407 157.773 262.02 157.48C262.647 157.173 263.354 156.94 264.14 156.78L269.26 155.76L269.68 158.44L265.16 159.34C264.894 159.393 264.587 159.467 264.24 159.56C263.907 159.64 263.567 159.767 263.22 159.94C262.887 160.113 262.574 160.36 262.28 160.68C262 160.987 261.774 161.393 261.6 161.9C261.427 162.393 261.34 163.007 261.34 163.74C261.34 163.967 261.347 164.14 261.36 164.26C261.387 164.38 261.407 164.507 261.42 164.64C261.447 164.773 261.46 164.98 261.46 165.26L260.46 164.28C260.754 163.653 261.127 163.12 261.58 162.68C262.047 162.24 262.58 161.907 263.18 161.68C263.794 161.44 264.474 161.32 265.22 161.32C266.234 161.32 267.12 161.527 267.88 161.94C268.654 162.34 269.254 162.907 269.68 163.64C270.107 164.373 270.32 165.207 270.32 166.14C270.32 167.153 270.067 168.047 269.56 168.82C269.054 169.58 268.347 170.173 267.44 170.6C266.547 171.027 265.507 171.24 264.32 171.24ZM264.48 168.82C265 168.82 265.46 168.707 265.86 168.48C266.26 168.24 266.567 167.927 266.78 167.54C267.007 167.14 267.12 166.693 267.12 166.2C267.12 165.72 267.007 165.293 266.78 164.92C266.567 164.547 266.26 164.253 265.86 164.04C265.46 163.827 264.994 163.72 264.46 163.72C263.94 163.72 263.474 163.827 263.06 164.04C262.647 164.24 262.327 164.52 262.1 164.88C261.874 165.24 261.76 165.66 261.76 166.14C261.76 166.633 261.874 167.087 262.1 167.5C262.34 167.9 262.66 168.22 263.06 168.46C263.474 168.7 263.947 168.82 264.48 168.82ZM278.778 171.16C277.871 171.16 277.078 170.96 276.398 170.56C275.718 170.16 275.184 169.553 274.798 168.74C274.424 167.913 274.238 166.873 274.238 165.62C274.238 164.353 274.418 163.313 274.778 162.5C275.138 161.687 275.658 161.08 276.338 160.68C277.018 160.28 277.831 160.08 278.778 160.08C279.791 160.08 280.698 160.313 281.497 160.78C282.311 161.233 282.951 161.873 283.418 162.7C283.898 163.527 284.138 164.5 284.138 165.62C284.138 166.753 283.898 167.733 283.418 168.56C282.951 169.387 282.311 170.027 281.497 170.48C280.698 170.933 279.791 171.16 278.778 171.16ZM272.418 174.88V160.24H275.398V162.44L275.338 165.64L275.538 168.82V174.88H272.418ZM278.238 168.6C278.758 168.6 279.218 168.48 279.618 168.24C280.031 168 280.358 167.66 280.598 167.22C280.851 166.767 280.978 166.233 280.978 165.62C280.978 164.993 280.851 164.46 280.598 164.02C280.358 163.58 280.031 163.24 279.618 163C279.218 162.76 278.758 162.64 278.238 162.64C277.718 162.64 277.251 162.76 276.838 163C276.424 163.24 276.098 163.58 275.858 164.02C275.618 164.46 275.498 164.993 275.498 165.62C275.498 166.233 275.618 166.767 275.858 167.22C276.098 167.66 276.424 168 276.838 168.24C277.251 168.48 277.718 168.6 278.238 168.6ZM291.364 171.16C290.218 171.16 289.198 170.92 288.304 170.44C287.424 169.96 286.724 169.307 286.204 168.48C285.698 167.64 285.444 166.687 285.444 165.62C285.444 164.54 285.698 163.587 286.204 162.76C286.724 161.92 287.424 161.267 288.304 160.8C289.198 160.32 290.218 160.08 291.364 160.08C292.498 160.08 293.511 160.32 294.404 160.8C295.298 161.267 295.998 161.913 296.504 162.74C297.011 163.567 297.264 164.527 297.264 165.62C297.264 166.687 297.011 167.64 296.504 168.48C295.998 169.307 295.298 169.96 294.404 170.44C293.511 170.92 292.498 171.16 291.364 171.16ZM291.364 168.6C291.884 168.6 292.351 168.48 292.764 168.24C293.178 168 293.504 167.66 293.744 167.22C293.984 166.767 294.104 166.233 294.104 165.62C294.104 164.993 293.984 164.46 293.744 164.02C293.504 163.58 293.178 163.24 292.764 163C292.351 162.76 291.884 162.64 291.364 162.64C290.844 162.64 290.378 162.76 289.964 163C289.551 163.24 289.218 163.58 288.964 164.02C288.724 164.46 288.604 164.993 288.604 165.62C288.604 166.233 288.724 166.767 288.964 167.22C289.218 167.66 289.551 168 289.964 168.24C290.378 168.48 290.844 168.6 291.364 168.6ZM299.41 171V160.24H302.51V164.44H307.19V160.24H310.31V171H307.19V166.98H302.51V171H299.41ZM316.839 171.2C316.013 171.2 315.186 171.113 314.359 170.94C313.546 170.767 312.793 170.507 312.099 170.16L312.939 167.98C313.486 168.247 314.079 168.453 314.719 168.6C315.373 168.733 316.033 168.8 316.699 168.8C317.179 168.8 317.593 168.753 317.939 168.66C318.299 168.553 318.573 168.407 318.759 168.22C318.946 168.033 319.039 167.807 319.039 167.54C319.039 167.193 318.893 166.933 318.599 166.76C318.306 166.573 317.879 166.48 317.319 166.48H315.119V164.54H317.059C317.419 164.54 317.726 164.5 317.979 164.42C318.233 164.34 318.419 164.227 318.539 164.08C318.673 163.92 318.739 163.733 318.739 163.52C318.739 163.293 318.659 163.1 318.499 162.94C318.339 162.78 318.106 162.66 317.799 162.58C317.493 162.487 317.106 162.44 316.639 162.44C316.106 162.44 315.553 162.507 314.979 162.64C314.406 162.76 313.819 162.94 313.219 163.18L312.459 161.02C313.166 160.727 313.866 160.493 314.559 160.32C315.253 160.147 315.939 160.053 316.619 160.04C317.619 160.013 318.519 160.12 319.319 160.36C320.119 160.6 320.746 160.947 321.199 161.4C321.666 161.853 321.899 162.407 321.899 163.06C321.899 163.58 321.739 164.047 321.419 164.46C321.113 164.873 320.686 165.2 320.139 165.44C319.593 165.667 318.979 165.78 318.299 165.78L318.379 165.16C319.566 165.16 320.499 165.4 321.179 165.88C321.859 166.347 322.199 166.987 322.199 167.8C322.199 168.493 321.959 169.1 321.479 169.62C321.013 170.127 320.373 170.52 319.559 170.8C318.759 171.067 317.853 171.2 316.839 171.2ZM330.87 171V168.9L330.67 168.44V164.68C330.67 164.013 330.463 163.493 330.05 163.12C329.65 162.747 329.03 162.56 328.19 162.56C327.616 162.56 327.05 162.653 326.49 162.84C325.943 163.013 325.476 163.253 325.09 163.56L323.97 161.38C324.556 160.967 325.263 160.647 326.09 160.42C326.916 160.193 327.756 160.08 328.61 160.08C330.25 160.08 331.523 160.467 332.43 161.24C333.336 162.013 333.79 163.22 333.79 164.86V171H330.87ZM327.59 171.16C326.75 171.16 326.03 171.02 325.43 170.74C324.83 170.447 324.37 170.053 324.05 169.56C323.73 169.067 323.57 168.513 323.57 167.9C323.57 167.26 323.723 166.7 324.03 166.22C324.35 165.74 324.85 165.367 325.53 165.1C326.21 164.82 327.096 164.68 328.19 164.68H331.05V166.5H328.53C327.796 166.5 327.29 166.62 327.01 166.86C326.743 167.1 326.61 167.4 326.61 167.76C326.61 168.16 326.763 168.48 327.07 168.72C327.39 168.947 327.823 169.06 328.37 169.06C328.89 169.06 329.356 168.94 329.77 168.7C330.183 168.447 330.483 168.08 330.67 167.6L331.15 169.04C330.923 169.733 330.51 170.26 329.91 170.62C329.31 170.98 328.536 171.16 327.59 171.16Z" fill="white" fill-opacity="0.9"/>
<path d="M27.554 214.144C26.726 214.144 25.928 214.048 25.16 213.856C24.404 213.652 23.804 213.4 23.36 213.1L24.296 211.084C24.74 211.36 25.262 211.588 25.862 211.768C26.474 211.936 27.074 212.02 27.662 212.02C28.31 212.02 28.766 211.942 29.03 211.786C29.306 211.63 29.444 211.414 29.444 211.138C29.444 210.91 29.336 210.742 29.12 210.634C28.916 210.514 28.64 210.424 28.292 210.364C27.944 210.304 27.56 210.244 27.14 210.184C26.732 210.124 26.318 210.046 25.898 209.95C25.478 209.842 25.094 209.686 24.746 209.482C24.398 209.278 24.116 209.002 23.9 208.654C23.696 208.306 23.594 207.856 23.594 207.304C23.594 206.692 23.768 206.152 24.116 205.684C24.476 205.216 24.992 204.85 25.664 204.586C26.336 204.31 27.14 204.172 28.076 204.172C28.736 204.172 29.408 204.244 30.092 204.388C30.776 204.532 31.346 204.742 31.802 205.018L30.866 207.016C30.398 206.74 29.924 206.554 29.444 206.458C28.976 206.35 28.52 206.296 28.076 206.296C27.452 206.296 26.996 206.38 26.708 206.548C26.42 206.716 26.276 206.932 26.276 207.196C26.276 207.436 26.378 207.616 26.582 207.736C26.798 207.856 27.08 207.952 27.428 208.024C27.776 208.096 28.154 208.162 28.562 208.222C28.982 208.27 29.402 208.348 29.822 208.456C30.242 208.564 30.62 208.72 30.956 208.924C31.304 209.116 31.586 209.386 31.802 209.734C32.018 210.07 32.126 210.514 32.126 211.066C32.126 211.666 31.946 212.2 31.586 212.668C31.226 213.124 30.704 213.484 30.02 213.748C29.348 214.012 28.526 214.144 27.554 214.144ZM38.4665 214.144C37.4345 214.144 36.5165 213.928 35.7125 213.496C34.9205 213.064 34.2905 212.476 33.8225 211.732C33.3665 210.976 33.1385 210.118 33.1385 209.158C33.1385 208.186 33.3665 207.328 33.8225 206.584C34.2905 205.828 34.9205 205.24 35.7125 204.82C36.5165 204.388 37.4345 204.172 38.4665 204.172C39.4865 204.172 40.3985 204.388 41.2025 204.82C42.0065 205.24 42.6365 205.822 43.0925 206.566C43.5485 207.31 43.7765 208.174 43.7765 209.158C43.7765 210.118 43.5485 210.976 43.0925 211.732C42.6365 212.476 42.0065 213.064 41.2025 213.496C40.3985 213.928 39.4865 214.144 38.4665 214.144ZM38.4665 211.84C38.9345 211.84 39.3545 211.732 39.7265 211.516C40.0985 211.3 40.3925 210.994 40.6085 210.598C40.8245 210.19 40.9325 209.71 40.9325 209.158C40.9325 208.594 40.8245 208.114 40.6085 207.718C40.3925 207.322 40.0985 207.016 39.7265 206.8C39.3545 206.584 38.9345 206.476 38.4665 206.476C37.9985 206.476 37.5785 206.584 37.2065 206.8C36.8345 207.016 36.5345 207.322 36.3065 207.718C36.0905 208.114 35.9825 208.594 35.9825 209.158C35.9825 209.71 36.0905 210.19 36.3065 210.598C36.5345 210.994 36.8345 211.3 37.2065 211.516C37.5785 211.732 37.9985 211.84 38.4665 211.84ZM49.7394 214.144C48.9354 214.144 48.2154 213.988 47.5794 213.676C46.9554 213.364 46.4694 212.89 46.1214 212.254C45.7734 211.606 45.5994 210.784 45.5994 209.788V204.316H48.4074V209.374C48.4074 210.178 48.5754 210.772 48.9114 211.156C49.2594 211.528 49.7454 211.714 50.3694 211.714C50.8014 211.714 51.1854 211.624 51.5214 211.444C51.8574 211.252 52.1214 210.964 52.3134 210.58C52.5054 210.184 52.6014 209.692 52.6014 209.104V204.316H55.4094V214H52.7454V211.336L53.2314 212.11C52.9074 212.782 52.4274 213.292 51.7914 213.64C51.1674 213.976 50.4834 214.144 49.7394 214.144ZM57.3448 214V212.308L63.0688 205.54L63.5548 206.476H57.4708V204.316H65.8228V206.008L60.0988 212.776L59.5948 211.84H65.9848V214H57.3448ZM67.2133 210.058V207.808H72.3073V210.058H67.2133ZM80.4027 204.172C81.1707 204.172 81.8547 204.328 82.4547 204.64C83.0667 204.94 83.5467 205.408 83.8947 206.044C84.2427 206.668 84.4167 207.472 84.4167 208.456V214H81.6087V208.888C81.6087 208.108 81.4347 207.532 81.0867 207.16C80.7507 206.788 80.2707 206.602 79.6467 206.602C79.2027 206.602 78.8007 206.698 78.4407 206.89C78.0927 207.07 77.8167 207.352 77.6127 207.736C77.4207 208.12 77.3247 208.612 77.3247 209.212V214H74.5167V200.644H77.3247V206.998L76.6947 206.188C77.0427 205.54 77.5407 205.042 78.1887 204.694C78.8367 204.346 79.5747 204.172 80.4027 204.172ZM91.6403 214.144C90.6083 214.144 89.6903 213.928 88.8863 213.496C88.0943 213.064 87.4643 212.476 86.9963 211.732C86.5403 210.976 86.3123 210.118 86.3123 209.158C86.3123 208.186 86.5403 207.328 86.9963 206.584C87.4643 205.828 88.0943 205.24 88.8863 204.82C89.6903 204.388 90.6083 204.172 91.6403 204.172C92.6603 204.172 93.5723 204.388 94.3763 204.82C95.1803 205.24 95.8103 205.822 96.2663 206.566C96.7223 207.31 96.9503 208.174 96.9503 209.158C96.9503 210.118 96.7223 210.976 96.2663 211.732C95.8103 212.476 95.1803 213.064 94.3763 213.496C93.5723 213.928 92.6603 214.144 91.6403 214.144ZM91.6403 211.84C92.1083 211.84 92.5283 211.732 92.9003 211.516C93.2723 211.3 93.5663 210.994 93.7823 210.598C93.9983 210.19 94.1063 209.71 94.1063 209.158C94.1063 208.594 93.9983 208.114 93.7823 207.718C93.5663 207.322 93.2723 207.016 92.9003 206.8C92.5283 206.584 92.1083 206.476 91.6403 206.476C91.1723 206.476 90.7523 206.584 90.3803 206.8C90.0083 207.016 89.7083 207.322 89.4803 207.718C89.2643 208.114 89.1563 208.594 89.1563 209.158C89.1563 209.71 89.2643 210.19 89.4803 210.598C89.7083 210.994 90.0083 211.3 90.3803 211.516C90.7523 211.732 91.1723 211.84 91.6403 211.84ZM102.787 214.144C101.647 214.144 100.759 213.856 100.123 213.28C99.4873 212.692 99.1693 211.822 99.1693 210.67V202.174H101.977V210.634C101.977 211.042 102.085 211.36 102.301 211.588C102.517 211.804 102.811 211.912 103.183 211.912C103.627 211.912 104.005 211.792 104.317 211.552L105.073 213.532C104.785 213.736 104.437 213.892 104.029 214C103.633 214.096 103.219 214.144 102.787 214.144ZM97.6753 206.692V204.532H104.389V206.692H97.6753ZM111.157 214.144C110.053 214.144 109.081 213.928 108.241 213.496C107.413 213.064 106.771 212.476 106.315 211.732C105.859 210.976 105.631 210.118 105.631 209.158C105.631 208.186 105.853 207.328 106.297 206.584C106.753 205.828 107.371 205.24 108.151 204.82C108.931 204.388 109.813 204.172 110.797 204.172C111.745 204.172 112.597 204.376 113.353 204.784C114.121 205.18 114.727 205.756 115.171 206.512C115.615 207.256 115.837 208.15 115.837 209.194C115.837 209.302 115.831 209.428 115.819 209.572C115.807 209.704 115.795 209.83 115.783 209.95H107.917V208.312H114.307L113.227 208.798C113.227 208.294 113.125 207.856 112.921 207.484C112.717 207.112 112.435 206.824 112.075 206.62C111.715 206.404 111.295 206.296 110.815 206.296C110.335 206.296 109.909 206.404 109.537 206.62C109.177 206.824 108.895 207.118 108.691 207.502C108.487 207.874 108.385 208.318 108.385 208.834V209.266C108.385 209.794 108.499 210.262 108.727 210.67C108.967 211.066 109.297 211.372 109.717 211.588C110.149 211.792 110.653 211.894 111.229 211.894C111.745 211.894 112.195 211.816 112.579 211.66C112.975 211.504 113.335 211.27 113.659 210.958L115.153 212.578C114.709 213.082 114.151 213.472 113.479 213.748C112.807 214.012 112.033 214.144 111.157 214.144ZM117.706 214V200.644H120.514V214H117.706ZM124.182 214.144C123.702 214.144 123.288 213.982 122.94 213.658C122.604 213.322 122.436 212.896 122.436 212.38C122.436 211.864 122.604 211.45 122.94 211.138C123.288 210.814 123.702 210.652 124.182 210.652C124.674 210.652 125.088 210.814 125.424 211.138C125.76 211.45 125.928 211.864 125.928 212.38C125.928 212.896 125.76 213.322 125.424 213.658C125.088 213.982 124.674 214.144 124.182 214.144ZM132.406 214.144C131.362 214.144 130.432 213.934 129.616 213.514C128.8 213.082 128.158 212.488 127.69 211.732C127.234 210.976 127.006 210.118 127.006 209.158C127.006 208.186 127.234 207.328 127.69 206.584C128.158 205.828 128.8 205.24 129.616 204.82C130.432 204.388 131.362 204.172 132.406 204.172C133.426 204.172 134.314 204.388 135.07 204.82C135.826 205.24 136.384 205.846 136.744 206.638L134.566 207.808C134.314 207.352 133.996 207.016 133.612 206.8C133.24 206.584 132.832 206.476 132.388 206.476C131.908 206.476 131.476 206.584 131.092 206.8C130.708 207.016 130.402 207.322 130.174 207.718C129.958 208.114 129.85 208.594 129.85 209.158C129.85 209.722 129.958 210.202 130.174 210.598C130.402 210.994 130.708 211.3 131.092 211.516C131.476 211.732 131.908 211.84 132.388 211.84C132.832 211.84 133.24 211.738 133.612 211.534C133.996 211.318 134.314 210.976 134.566 210.508L136.744 211.696C136.384 212.476 135.826 213.082 135.07 213.514C134.314 213.934 133.426 214.144 132.406 214.144ZM142.845 214.144C141.813 214.144 140.895 213.928 140.091 213.496C139.299 213.064 138.669 212.476 138.201 211.732C137.745 210.976 137.517 210.118 137.517 209.158C137.517 208.186 137.745 207.328 138.201 206.584C138.669 205.828 139.299 205.24 140.091 204.82C140.895 204.388 141.813 204.172 142.845 204.172C143.865 204.172 144.777 204.388 145.581 204.82C146.385 205.24 147.015 205.822 147.471 206.566C147.927 207.31 148.155 208.174 148.155 209.158C148.155 210.118 147.927 210.976 147.471 211.732C147.015 212.476 146.385 213.064 145.581 213.496C144.777 213.928 143.865 214.144 142.845 214.144ZM142.845 211.84C143.313 211.84 143.733 211.732 144.105 211.516C144.477 211.3 144.771 210.994 144.987 210.598C145.203 210.19 145.311 209.71 145.311 209.158C145.311 208.594 145.203 208.114 144.987 207.718C144.771 207.322 144.477 207.016 144.105 206.8C143.733 206.584 143.313 206.476 142.845 206.476C142.377 206.476 141.957 206.584 141.585 206.8C141.213 207.016 140.913 207.322 140.685 207.718C140.469 208.114 140.361 208.594 140.361 209.158C140.361 209.71 140.469 210.19 140.685 210.598C140.913 210.994 141.213 211.3 141.585 211.516C141.957 211.732 142.377 211.84 142.845 211.84ZM162.434 204.172C163.202 204.172 163.88 204.328 164.468 204.64C165.068 204.94 165.536 205.408 165.872 206.044C166.22 206.668 166.394 207.472 166.394 208.456V214H163.586V208.888C163.586 208.108 163.424 207.532 163.1 207.16C162.776 206.788 162.32 206.602 161.732 206.602C161.324 206.602 160.958 206.698 160.634 206.89C160.31 207.07 160.058 207.346 159.878 207.718C159.698 208.09 159.608 208.564 159.608 209.14V214H156.8V208.888C156.8 208.108 156.638 207.532 156.314 207.16C156.002 206.788 155.552 206.602 154.964 206.602C154.556 206.602 154.19 206.698 153.866 206.89C153.542 207.07 153.29 207.346 153.11 207.718C152.93 208.09 152.84 208.564 152.84 209.14V214H150.032V204.316H152.714V206.962L152.21 206.188C152.546 205.528 153.02 205.03 153.632 204.694C154.256 204.346 154.964 204.172 155.756 204.172C156.644 204.172 157.418 204.4 158.078 204.856C158.75 205.3 159.194 205.984 159.41 206.908L158.42 206.638C158.744 205.882 159.26 205.282 159.968 204.838C160.688 204.394 161.51 204.172 162.434 204.172Z" fill="white" fill-opacity="0.9"/>
<path fill-rule="evenodd" clip-rule="evenodd" d="M70.5395 29.2557C69.3711 29.3713 68.505 29.6973 68.2974 30.0998C68.0959 30.4904 68.2263 30.9591 68.8776 32.1845C69.4007 33.1686 70.7786 35.9382 71.0957 36.6427C71.507 37.5565 71.5421 37.711 71.5398 38.5993C71.5385 39.1146 71.5155 39.4264 71.4712 39.5294L71.4046 39.6844L71.3549 39.5552C71.1292 38.9689 71.0534 38.8806 70.2127 38.2268C69.7637 37.8776 69.3651 37.5918 69.3271 37.5918C69.2891 37.5918 69.2062 37.6673 69.1428 37.7598C68.6649 38.4565 68.3195 38.7677 67.6932 39.0659C67.3487 39.2299 66.6758 39.4028 66.3987 39.3985L66.2872 39.3968L66.3937 39.3081C66.4522 39.2594 66.8158 39.0362 67.2017 38.8123C68.4042 38.1144 68.8361 37.532 68.838 36.6057C68.8389 36.1856 68.57 35.4181 68.3417 35.1893C68.2587 35.1061 68.2472 35.1205 68.1399 35.44C67.8644 36.2597 67.1477 36.8843 65.7668 37.5081C64.6498 38.0127 64.371 38.1539 63.7025 38.5532C63.0316 38.954 62.7376 39.1639 62.3769 39.4992L62.1778 39.6844L62.2584 39.5241C62.4881 39.0672 63.368 38.458 65.4399 37.3213C66.442 36.7715 67.1547 36.331 67.3962 36.1124C67.4985 36.0197 67.6497 35.8206 67.7322 35.6699C67.8687 35.4204 67.882 35.3518 67.88 34.905C67.8779 34.3901 67.7746 33.9548 67.5469 33.5001C67.3735 33.1542 66.9063 32.4671 66.7299 32.2989L66.5707 32.1472L66.57 32.7381C66.5682 34.1104 66.0907 34.984 65.0184 35.5765C64.698 35.7536 64.5578 35.782 64.6693 35.6474C64.7076 35.6011 64.9134 35.4299 65.1266 35.2671C65.8621 34.7053 66.1843 34.2259 66.3191 33.4925C66.4238 32.9225 66.2479 32.3544 65.8308 31.9161C65.5575 31.6289 64.747 31.0221 64.3291 30.7918C63.5412 30.3577 62.4994 30.0901 61.571 30.0836C60.5664 30.0764 60.1144 30.288 59.7983 30.9133C59.4983 31.5064 59.3504 31.6368 58.4959 32.0613C56.297 33.1537 54.7158 34.2076 54.7158 34.5809C54.7158 34.6563 56.2137 37.0705 56.2621 37.073C56.2763 37.0736 56.2914 36.9493 56.2957 36.7966C56.3107 36.2643 56.5111 36.1167 57.1614 36.1584C57.88 36.2045 58.3754 36.5083 58.3754 36.9029C58.3754 37.4197 58.0862 37.6391 57.123 37.8531C56.9587 37.8896 56.8122 37.9391 56.7973 37.9632C56.7754 37.9986 57.1708 38.5443 57.6649 39.1607L57.7535 39.2711L58.5356 38.8693C58.9658 38.6484 59.3259 38.4759 59.336 38.4859C59.3461 38.496 59.2884 38.642 59.2079 38.8102C59.0134 39.2166 58.8114 39.7665 58.7131 40.1569C58.54 40.8438 58.6607 41.4118 59.0787 41.8779C59.2074 42.0214 59.336 42.1388 59.3645 42.1388C59.397 42.1388 59.4042 42.0279 59.3839 41.8416C59.2968 41.044 59.6536 40.0553 60.2568 39.4221L60.5977 39.0644L60.5687 39.2452C60.5529 39.3447 60.4686 39.6121 60.3815 39.8394C60.076 40.6367 59.8762 41.2515 59.817 41.5774C59.6585 42.4495 60.0204 43.3667 60.8898 44.296C61.1207 44.5427 61.2102 44.5711 61.2102 44.3972C61.2102 44.2803 61.2957 43.9194 61.4484 43.3917C61.5055 43.194 61.5519 43.1205 61.6197 43.1205C61.6872 43.1205 61.721 43.1736 61.7436 43.3158C61.908 44.3466 61.9002 46.7571 61.7295 47.6674C61.4837 48.9778 60.7422 50.6791 60.1977 51.1824C59.8316 51.5206 59.6957 51.558 58.8134 51.5636C58.1241 51.568 58.018 51.5806 57.8342 51.6803C57.3629 51.9359 56.9579 52.5044 56.8355 53.0823C56.8036 53.233 56.7775 53.3795 56.7775 53.408C56.7775 53.442 57.4888 53.4544 58.8521 53.4442L60.9267 53.4286L61.2876 53.2523C61.8044 52.9998 62.2295 52.5505 62.733 51.7243C63.3594 50.6963 63.6782 50.2938 64.5553 49.4228C65.1959 48.7868 65.4075 48.5406 65.5768 48.2344C65.8144 47.8048 65.964 47.6276 66.2186 47.4742C66.3824 47.3755 66.7769 47.281 66.7769 47.3405C66.7769 47.356 66.6581 47.4991 66.5129 47.6583C66.2652 47.93 66.2548 47.952 66.3454 48.0148C66.3984 48.0515 66.639 48.2307 66.88 48.4128C67.121 48.595 67.6528 48.9726 68.0619 49.252C68.8485 49.7892 69.2359 50.1267 69.3747 50.3959C69.5085 50.6553 69.6243 51.2988 69.573 51.4974L69.5287 51.6688L69.0593 51.727C67.8215 51.8803 67.387 52.2372 67.4784 53.0252C67.5313 53.4796 67.4904 53.469 69.0807 53.4422C70.3164 53.4214 70.4982 53.4072 70.8026 53.3078C71.4178 53.1068 71.7817 52.6563 71.8582 52.0008C71.898 51.6598 71.7985 49.868 71.6968 49.0953C71.6556 48.7825 71.622 48.3814 71.622 48.2041V47.8815L71.3514 47.8531C71.2025 47.8375 70.756 47.7892 70.3592 47.7458C69.9623 47.7024 69.5697 47.6611 69.4869 47.6542C69.4041 47.6473 69.3279 47.6159 69.3175 47.5845C69.3048 47.5454 69.5559 47.5162 70.1125 47.4917C70.9652 47.4543 71.4775 47.3796 72.292 47.1743C72.7515 47.0585 73.4966 46.8192 73.7868 46.6945C73.9057 46.6433 74.9032 46.2553 75.3403 46.0902C75.7325 45.9421 76.9239 45.6081 77.363 45.5232C77.7165 45.4549 77.9929 45.4404 78.5743 45.4598C79.4139 45.4878 79.7702 45.5725 80.4101 45.896C80.7736 46.0798 80.916 46.1803 81.8485 46.9125C83.0208 47.8326 84.1439 48.479 85.2631 48.8775C86.0278 49.1498 86.2182 49.2437 86.4357 49.4553C86.814 49.8236 86.9434 50.354 86.9197 51.4393L86.9046 52.1368L86.3118 52.1679C85.6277 52.2038 85.4171 52.2756 85.1918 52.5495C85.0398 52.7345 84.817 53.2288 84.817 53.3815C84.817 53.4422 85.0262 53.4544 86.0728 53.4544C86.7635 53.4544 87.4511 53.4311 87.6007 53.4027C88.0119 53.3245 88.3121 53.1535 88.6895 52.7827C89.092 52.3871 89.2391 52.0584 89.3023 51.4134C89.3246 51.1861 89.3509 50.1062 89.3607 49.0136L89.3786 47.0271L89.0694 46.9694C88.298 46.8251 88.0162 46.5101 87.301 44.9936C87.2441 44.8729 87.2178 44.7616 87.2425 44.7462C87.2672 44.731 87.526 44.7767 87.8176 44.848C88.9764 45.131 90.7119 45.3242 91.3201 45.2377C91.8498 45.1624 92.2488 44.9338 92.5557 44.5296C92.9013 44.0745 93.0382 43.6382 93.0382 42.9913C93.0382 41.9212 92.5991 41.1391 91.5098 40.2685C91.3212 40.1178 90.9704 39.8201 90.7303 39.6069C90.1892 39.1267 89.8432 38.9162 89.2633 38.7148C88.8762 38.5803 88.7379 38.5579 88.2962 38.5585C87.9739 38.559 87.7172 38.5861 87.6112 38.631L87.4415 38.7027L87.8473 39.1677C88.4813 39.8944 88.9731 40.3634 89.2383 40.4943C89.4554 40.6015 89.5544 40.6145 90.1553 40.6145C90.8117 40.6145 90.8346 40.6183 91.0543 40.7639C91.1783 40.8461 91.4962 41.1345 91.7607 41.4048C92.3419 41.9989 92.6222 42.4972 92.6222 42.9364C92.6222 43.4589 92.118 44.1534 91.6329 44.2991C91.3474 44.3849 90.5585 44.3757 90.0852 44.2812C89.5828 44.1808 88.9596 43.9376 88.5281 43.6733C88.0698 43.3926 87.2868 42.7976 86.8804 42.4212C84.5085 40.2244 83.5788 39.5906 82.2399 39.258C81.7329 39.132 81.6255 39.1239 80.539 39.1292C79.1713 39.1358 77.9555 39.2132 76.9567 39.3575C76.5598 39.4148 76.1233 39.4742 75.9867 39.4896L75.7382 39.5174L75.7719 39.3167C75.8776 38.6881 75.9507 38.6226 77.034 38.1848C77.669 37.9282 78.5492 37.4856 78.8302 37.2815C79.0328 37.1344 79.2999 36.7053 79.3014 36.5246C79.3017 36.481 78.7525 36.458 77.2531 36.4389C75.4425 36.4158 74.9818 36.3882 74.5213 36.2749C74.3254 36.2267 74.3891 36.1748 74.8048 36.0437L75.2042 35.9177L78.1938 35.9102C81.0748 35.9029 81.2008 35.8985 81.6684 35.7894C82.9774 35.4836 83.5285 35.0061 83.5285 34.1773V33.9852L79.4952 33.9866C76.1285 33.9877 75.3384 33.9742 74.7146 33.9049C74.3035 33.8592 73.8976 33.802 73.8126 33.7779L73.6579 33.7339L73.8126 33.6536C74.1972 33.454 74.4038 33.4473 79.812 33.4612C85.0884 33.4747 85.4949 33.4637 86.2345 33.2874C86.6887 33.1791 86.9318 33.0632 87.1549 32.8486C87.4057 32.6075 87.5291 32.326 87.5757 31.8894L87.6124 31.5465H80.2581H72.9037L72.9201 31.4044C72.9347 31.2761 72.9665 31.2556 73.2456 31.1938C73.6806 31.0975 74.5029 31.0828 82.5234 31.0275C89.2653 30.981 90.0803 30.9606 90.578 30.8263C91.1511 30.6716 91.5489 30.1736 91.6063 29.5391L91.6351 29.2213L81.1775 29.2296C75.4259 29.2341 70.6388 29.2459 70.5395 29.2557ZM62.5798 31.7867C63.2976 32.0276 63.8008 32.5903 63.9542 33.3232C64.004 33.5612 63.9991 33.6698 63.9245 33.9871C63.8754 34.1958 63.7768 34.4586 63.7055 34.5711L63.5756 34.7758L63.6171 34.5175C63.6399 34.3754 63.6578 34.0615 63.6568 33.8199C63.6554 33.4731 63.6318 33.3365 63.5444 33.1703C63.3533 32.8065 62.8527 32.4709 61.8545 32.0373C61.3018 31.7973 61.3231 31.8112 61.4179 31.7511C61.5451 31.6705 62.3026 31.6937 62.5798 31.7867ZM60.0921 33.2846C60.2051 33.3979 59.6705 33.8858 59.4606 33.861C59.3198 33.8444 59.1903 33.6472 59.2381 33.5223C59.302 33.3553 59.9755 33.1678 60.0921 33.2846ZM77.6268 45.9458C77.2767 46.0246 77.1887 46.0756 77.1887 46.1994C77.1887 46.2685 77.2792 46.7026 77.3899 47.1642C77.5005 47.6257 77.6199 48.1988 77.6551 48.4377C77.7268 48.9239 77.6958 50.0439 77.5977 50.5093C77.5175 50.8898 77.2367 51.4864 77.0627 51.646C76.9255 51.7718 76.9041 51.7747 76.2435 51.7615C75.7248 51.7509 75.5013 51.7679 75.293 51.8336C74.9702 51.9354 74.6448 52.2291 74.5058 52.544C74.4068 52.7685 74.298 53.3297 74.3445 53.3762C74.359 53.3908 75.0239 53.4027 75.822 53.4027H77.2731L77.8105 52.8215C78.1061 52.5018 78.8723 51.717 79.5133 51.0776C80.1922 50.4003 80.7218 49.8287 80.7819 49.7084C80.8651 49.5417 80.8965 49.3168 80.9441 48.5458C81.0174 47.3581 81.0182 46.9661 80.9477 46.8339C80.8827 46.7121 80.2844 46.3143 79.9504 46.1708C79.5504 45.9989 78.9876 45.9102 78.3376 45.9166C78.0034 45.9199 77.6834 45.933 77.6268 45.9458ZM46.7524 60.7915C46.3213 61.2178 45.9345 61.5666 45.8927 61.5666C45.7834 61.5666 45.2783 61.3545 44.6318 61.0374C43.5729 60.5178 42.8438 60.2745 41.9588 60.1452C41.2941 60.0482 40.836 60.049 40.1242 60.1485C37.8513 60.4663 36.082 61.899 34.7995 64.4601C33.2277 67.5989 32.9904 70.9664 34.1066 74.2985C34.8942 76.6502 35.9863 78.2476 37.5118 79.2796C39.4957 80.6216 41.8966 80.8959 44.0721 80.0292C46.1004 79.2212 47.5703 77.4603 48.1638 75.1279C48.3911 74.2344 48.5437 72.6903 48.4152 72.5834C48.2875 72.4771 47.8837 72.4145 47.7123 72.4744C47.4094 72.5802 47.3061 72.8579 47.1377 74.0189C47.0094 74.9029 46.8829 75.431 46.6693 75.9734C46.0619 77.5167 44.8308 78.8008 43.4536 79.3274C42.8755 79.5485 42.5101 79.6135 41.8514 79.6125C40.523 79.6103 39.5517 79.0035 38.9732 77.8144C38.602 77.0512 38.5751 76.8574 38.5291 74.6131C38.4727 71.8607 38.476 68.614 38.5368 67.1211C38.5645 66.439 38.5994 65.4275 38.6142 64.8734C38.6603 63.1559 38.8511 62.5388 39.5583 61.8192C40.0432 61.3259 40.4026 61.1393 41.0434 61.0481C41.8911 60.9275 42.5041 61.0471 43.1249 61.4545C44.0377 62.0532 44.9684 63.267 45.7268 64.8475C46.0416 65.5038 46.2465 66.0657 46.6697 67.4347C46.8025 67.8643 46.9188 68.1464 46.9893 68.2098C47.0502 68.2646 47.1703 68.434 47.2563 68.5862C47.4074 68.8536 47.4187 68.8619 47.5943 68.8333C47.6943 68.8171 47.8062 68.7735 47.8432 68.7365C47.8972 68.6824 47.9109 67.8451 47.9134 64.459L47.9164 60.2489L47.7825 60.1327C47.7089 60.0688 47.6233 60.0165 47.5923 60.0165C47.5613 60.0165 47.1834 60.3652 46.7524 60.7915ZM59.6382 60.1537C59.0616 60.2369 58.261 60.4882 57.633 60.7834C55.8765 61.6086 54.1387 63.4996 53.2303 65.5743C52.7379 66.6992 52.2862 68.4502 52.2114 69.5244C52.1765 70.0244 52.3044 71.3911 52.4759 72.3508C52.6249 73.1852 53.1105 74.6277 53.5156 75.4398C54.8212 78.0568 56.9638 79.8772 59.2987 80.3536C60.1413 80.5255 60.6229 80.5513 61.2627 80.4587C62.8526 80.2286 64.2719 79.4375 65.6453 78.0159C66.5008 77.1304 67.0948 76.2747 67.6567 75.1182C68.1397 74.1241 68.4141 73.2823 68.6383 72.1071C68.7679 71.4282 68.8218 69.9222 68.7439 69.162C68.5229 67.0057 67.6763 64.9579 66.2981 63.2458C65.6027 62.3819 64.3353 61.2776 63.5229 60.8276C62.3366 60.1705 61.0585 59.9488 59.6382 60.1537ZM87.7171 60.1488C86.3659 60.3462 85.0072 61.0593 83.9385 62.1319C83.3153 62.7573 83.0161 63.1667 82.5959 63.9692C82.2187 64.6896 82.1713 64.8095 81.5849 66.5268C81.0405 68.1213 80.8355 68.7881 80.7526 69.2338C80.646 69.8073 80.707 69.782 79.4296 69.782H78.3226L78.3244 69.4333C78.3253 69.2414 78.3479 68.8417 78.3745 68.545C78.4055 68.2004 78.4047 67.7803 78.3723 67.3825C78.3056 66.5655 78.3031 62.8832 78.3688 62.4191C78.397 62.2202 78.4346 61.9237 78.4523 61.7603C78.4772 61.5321 78.5047 61.4622 78.5712 61.459C78.7086 61.4522 78.948 61.4141 79.1988 61.3592C79.3264 61.3311 79.7177 61.2622 80.0685 61.206C80.4192 61.1498 80.7408 61.0749 80.783 61.0398C80.8406 60.9919 80.8524 60.9119 80.8299 60.7217C80.8134 60.5818 80.788 60.4555 80.7735 60.4411C80.759 60.4265 80.5395 60.4444 80.2858 60.4808C79.9349 60.5313 79.4624 60.5368 78.3133 60.5042C75.6303 60.4278 73.0278 60.4486 72.3012 60.5521C71.952 60.6018 71.6331 60.6553 71.5925 60.6708C71.5075 60.7035 71.4953 60.9092 71.57 61.0491C71.6572 61.2124 71.7869 61.2379 73.4175 61.4119C73.6537 61.4371 73.8798 61.4851 73.92 61.5185C73.9824 61.5704 73.9929 62.8482 73.9929 70.3544V79.1296L73.8254 79.1564C73.7333 79.1713 73.3448 79.2307 72.9621 79.2885C72.0082 79.4326 71.7063 79.4979 71.7582 79.5491C71.8098 79.6 72.6587 79.7714 73.4073 79.8821C74.2295 80.0037 75.7833 80.116 76.6387 80.1158C78.2161 80.1154 80.3493 79.8358 80.7147 79.5816L80.8645 79.4772L80.5363 79.4101C80.2053 79.3424 79.3214 79.2161 78.7736 79.1582L78.4772 79.1268V74.9701V70.8133L79.5403 70.8273L80.6035 70.8412L80.9259 72.1361C81.4584 74.2743 81.7575 75.1724 82.319 76.3183C82.7607 77.2196 83.1831 77.8107 83.874 78.4936C85.8466 80.4439 88.6845 81.0554 91.1042 80.0517C91.7208 79.7959 92.1661 79.5375 92.7815 79.0783C93.3395 78.662 94.2131 77.7647 94.6279 77.1818C95.3804 76.1241 95.9697 74.8205 96.3028 73.4764C96.78 71.5506 96.7122 68.4116 96.1543 66.6043C95.3207 63.9039 93.8991 61.9812 91.9171 60.8736C91.5144 60.6487 90.9662 60.4319 90.4095 60.2777C90.0495 60.178 89.0918 60.0679 88.6345 60.0736C88.3917 60.0767 87.9789 60.1105 87.7171 60.1488ZM106.285 60.1481C105.409 60.2782 104.441 60.6234 103.759 61.0498C103.217 61.3887 102.958 61.5148 102.805 61.5148C102.577 61.5148 102.341 61.3069 102.115 60.9074C101.999 60.7012 101.839 60.4512 101.759 60.352C101.635 60.1958 101.586 60.1719 101.399 60.1744C101.279 60.1761 101.091 60.1936 100.979 60.2135C100.733 60.2573 100.726 60.2762 100.604 61.2824C100.493 62.1963 100.478 64.8201 100.579 65.6743C100.722 66.8816 100.862 67.4803 101.132 68.0529C101.288 68.3818 101.486 68.6437 101.538 68.589C101.549 68.5774 101.652 68.2423 101.766 67.8444C102.254 66.1447 102.345 65.8531 102.547 65.3302C103.33 63.3132 104.267 62.1087 105.592 61.4142C107.306 60.5156 108.59 61.1294 109.003 63.0461C109.097 63.4823 109.113 63.7162 109.11 64.6667C109.102 66.8357 108.905 67.8274 108.366 68.4137C107.831 68.9957 107.04 69.1582 104.73 69.1607L103.484 69.162L103.428 69.4236C103.358 69.7496 103.395 69.9074 103.56 69.9822C103.645 70.0212 104.217 70.041 105.295 70.0422C107.062 70.0441 107.515 70.0914 107.987 70.3227C108.293 70.473 108.617 70.766 108.801 71.0591C109.164 71.6392 109.402 73.057 109.403 74.6429C109.403 75.6034 109.323 76.3586 109.141 77.0933C108.838 78.3206 108.319 79.1 107.566 79.4576C107.216 79.6236 107.206 79.6251 106.466 79.6203C105.661 79.6151 105.255 79.5416 104.718 79.304C104.058 79.0118 103.388 78.3963 103.27 77.9739C103.213 77.7713 103.216 77.707 103.289 77.5159C103.402 77.22 103.785 76.7975 104.366 76.3289C105.204 75.6528 105.479 75.2707 105.591 74.6246C105.795 73.4525 104.752 72.19 103.433 72.0107C102.742 71.917 102.228 72.0664 101.448 72.5867C101.093 72.8233 101.003 72.9183 100.711 73.3611C100.527 73.6386 100.345 73.9436 100.305 74.0388C100.037 74.6827 99.9784 75.7438 100.172 76.4698C100.439 77.4731 101.018 78.3497 101.866 79.0348C102.738 79.7391 103.683 80.1397 104.988 80.3579C105.694 80.4758 107.459 80.4749 108.2 80.3563C110.055 80.0589 111.564 79.4504 112.521 78.6144C113.858 77.4465 114.518 75.7947 114.304 74.1481C114.123 72.7561 113.544 71.6706 112.528 70.8211C111.859 70.2619 111.242 69.8935 110.615 69.6794C110.211 69.5418 110.249 69.4703 110.9 69.1396C112.422 68.3661 113.223 67.5437 113.632 66.3348C113.791 65.8631 113.802 65.7826 113.804 65.1317C113.806 64.5681 113.784 64.3516 113.691 64.0035C113.397 62.907 112.733 61.9435 111.863 61.3501C111.308 60.971 110.141 60.4897 109.3 60.292C108.352 60.0693 107.189 60.0138 106.285 60.1481ZM89.7302 61.1659C90.001 61.2952 90.2417 61.4627 90.4643 61.6769C91.0201 62.212 91.2214 62.6142 91.4013 63.5499C91.4848 63.9838 91.4919 64.5338 91.4919 70.5312V77.0416L91.3469 77.5055C91.1448 78.1526 90.9823 78.4324 90.565 78.852C89.9365 79.4838 89.1831 79.7394 88.3375 79.6077C87.2027 79.4308 86.3938 78.6315 85.9497 77.2483C85.8386 76.9022 85.8316 76.7729 85.7854 74.2515C85.7131 70.2999 85.8088 63.9237 85.9502 63.2716C86.1333 62.4274 86.7525 61.6067 87.4858 61.2364C87.9855 60.9843 88.1501 60.9496 88.7859 60.9627C89.2927 60.973 89.3527 60.9859 89.7302 61.1659ZM61.2069 61.0825C62.4447 61.3908 63.2702 62.329 63.5793 63.7791C63.8011 64.8196 63.8095 65.0824 63.8098 70.9446C63.81 75.807 63.8002 76.0891 63.6032 76.9452C63.3111 78.2139 62.5081 79.1396 61.3648 79.5256C61.0093 79.6456 60.0727 79.6605 59.6897 79.5522C58.8415 79.3125 58.1349 78.7102 57.7378 77.8884C57.3284 77.0412 57.3006 76.8202 57.2637 74.1162C57.2274 71.4613 57.3144 64.9462 57.3982 64.0467C57.4287 63.7199 57.4897 63.3362 57.5337 63.1942C58.0011 61.6879 59.7049 60.7083 61.2069 61.0825ZM101.466 84.6478C101.251 84.9219 101.495 85.2651 102.011 85.4155C102.34 85.5116 103.408 85.4974 103.74 85.3926C104.116 85.2734 104.331 84.9385 104.194 84.6834C104.038 84.3896 103.697 84.4735 103.432 84.8712C103.279 85.1007 103.201 85.1674 103.015 85.2263C102.704 85.3249 102.414 85.229 102.266 84.9785C101.981 84.498 101.681 84.3741 101.466 84.6478ZM55.824 85.8853C54.6787 86.0644 53.8219 86.7965 53.5094 87.8629C53.2797 88.6468 53.5786 89.702 54.1821 90.2378C54.9797 90.9461 56.3716 91.1238 57.3395 90.6411C57.4649 90.5785 57.6801 90.426 57.8178 90.3021C58.0664 90.0784 58.0703 90.0681 58.0188 89.7804C58.0165 89.7674 57.916 89.8519 57.7955 89.9682C57.3243 90.4231 56.7532 90.6441 56.1987 90.586C55.3369 90.4957 54.9172 89.9674 54.7639 88.7796C54.6606 87.9788 54.8485 87.152 55.2335 86.7135C55.7482 86.1274 56.5853 86.0091 57.2503 86.4285C57.5425 86.6127 57.7371 86.8592 57.8919 87.2413C57.956 87.3993 58.033 87.5367 58.0631 87.5468C58.1 87.5591 58.1176 87.2885 58.1176 86.7081C58.1176 86.2369 58.1002 85.8522 58.079 85.8533C58.0577 85.8544 57.9932 85.9299 57.9355 86.0213C57.8053 86.2273 57.6586 86.2302 57.0467 86.0389C56.6166 85.9044 56.1091 85.8406 55.824 85.8853ZM49.4818 85.9746C48.6124 86.1192 47.8983 86.7308 47.5996 87.5864C47.5091 87.8455 47.496 87.9829 47.5134 88.4865C47.5381 89.1956 47.6443 89.5129 48.0099 89.9691C48.4847 90.5619 49.0883 90.8516 49.948 90.8994C51.4002 90.9801 52.4851 90.1501 52.7106 88.7861C52.9401 87.3982 52.0609 86.183 50.6765 85.9746C50.1301 85.8923 49.9758 85.8923 49.4818 85.9746ZM42.7578 86.058C42.7578 86.0864 42.8604 86.1097 42.9859 86.1097C43.1711 86.1097 43.2343 86.1354 43.3209 86.2458C43.4248 86.3782 43.4278 86.4371 43.4278 88.3618C43.4278 89.7529 43.41 90.3808 43.3681 90.4732C43.3108 90.599 43.0711 90.7073 42.8479 90.7079C42.7983 90.7081 42.7578 90.7315 42.7578 90.7599C42.7578 90.8249 45.2651 90.8313 45.3051 90.7665C45.3204 90.7416 45.2207 90.7064 45.0835 90.6882C44.6195 90.6264 44.6412 90.7369 44.6245 88.3459L44.6099 86.2527L45.475 86.274C46.0584 86.2884 46.382 86.3176 46.4689 86.3639C46.7144 86.4947 46.8296 86.6454 46.9136 86.9452C46.9637 87.1244 47.0265 87.2464 47.0684 87.2464C47.1241 87.2464 47.1389 87.1165 47.1389 86.6263V86.0063H44.9483C43.5223 86.0063 42.7578 86.0243 42.7578 86.058ZM58.8393 86.6263C58.8393 87.118 58.854 87.2464 58.9101 87.2464C58.9491 87.2464 58.9957 87.1724 59.0138 87.082C59.0702 86.7993 59.2927 86.4788 59.5095 86.3679C59.6588 86.2915 59.8132 86.2647 60.1027 86.2647H60.4941L60.4785 88.3185C60.467 89.8234 60.4459 90.402 60.3995 90.4832C60.3322 90.6011 60.0885 90.7083 59.8882 90.7083C59.8216 90.7083 59.767 90.7315 59.767 90.7599C59.767 90.793 60.2309 90.8116 61.0556 90.8116C61.7643 90.8116 62.3442 90.7914 62.3442 90.7667C62.3442 90.742 62.2505 90.7093 62.1361 90.6939C62.0216 90.6785 61.8705 90.6282 61.8004 90.5822L61.673 90.4984L61.6864 88.3687L61.6999 86.2388L62.0567 86.2536C62.2531 86.2617 62.4935 86.3063 62.5911 86.3527C62.803 86.4535 63.0456 86.7727 63.1195 87.0477C63.2175 87.4128 63.2719 87.2624 63.2719 86.6263V86.0063H61.0556H58.8393V86.6263ZM63.7101 86.058C63.7276 86.0864 63.8449 86.1097 63.9708 86.1097C64.131 86.1097 64.2307 86.1407 64.3029 86.213C64.4024 86.3129 64.4059 86.3852 64.4059 88.3716C64.4059 90.7383 64.427 90.6272 63.9674 90.6847C63.3437 90.7628 63.7499 90.8116 65.0244 90.8116C65.8835 90.8116 66.3646 90.793 66.3646 90.7599C66.3646 90.7315 66.3095 90.7083 66.2422 90.7083C65.84 90.7083 65.6806 90.5895 65.6178 90.2432C65.5872 90.0751 65.6409 89.9774 66.3834 88.8481C66.8225 88.1803 67.231 87.5642 67.2909 87.4789L67.4001 87.3239L67.3848 88.8816C67.3675 90.6679 67.3776 90.628 66.9242 90.6882C66.3497 90.7647 66.7545 90.8116 67.9882 90.8116C69.229 90.8116 69.6265 90.7646 69.0428 90.687C68.5563 90.6223 68.5809 90.7433 68.5809 88.416C68.5809 86.4364 68.5838 86.3783 68.6878 86.2458C68.7774 86.1316 68.8355 86.1097 69.0486 86.1097C69.1883 86.1097 69.3025 86.0864 69.3025 86.058C69.3025 86.0248 68.83 86.0063 67.9882 86.0063C67.2634 86.0063 66.6738 86.0268 66.6738 86.0519C66.6738 86.077 66.7685 86.0988 66.8842 86.1004C67.1923 86.1046 67.3245 86.2129 67.3668 86.4958C67.4076 86.7686 67.4949 86.607 66.3903 88.3029C65.9935 88.9122 65.65 89.4121 65.6272 89.4137C65.6043 89.4152 65.5927 88.7439 65.6014 87.9218C65.6165 86.4971 65.6223 86.4202 65.7254 86.2813C65.8106 86.1665 65.8819 86.132 66.0604 86.1193C66.1852 86.1104 66.3093 86.0814 66.3362 86.0547C66.3667 86.0246 65.8737 86.0063 65.0317 86.0063C64.1426 86.0063 63.6892 86.024 63.7101 86.058ZM69.6118 86.0613C69.6118 86.0914 69.6524 86.112 69.702 86.107C69.9204 86.0847 70.0372 86.118 70.1553 86.2365L70.2818 86.3633V88.3525C70.2818 89.7506 70.2641 90.3808 70.2221 90.4732C70.1649 90.599 69.9251 90.7073 69.702 90.7079C69.6524 90.7081 69.6118 90.7315 69.6118 90.7599C69.6118 90.793 70.0757 90.8116 70.9004 90.8116C71.7251 90.8116 72.1889 90.793 72.1889 90.7599C72.1889 90.7315 72.1302 90.7083 72.0584 90.7083C71.8387 90.7083 71.5735 90.5682 71.5186 90.4232C71.4904 90.349 71.4674 89.8828 71.4674 89.3874V88.4865H72.3694H73.2714V89.3874C73.2714 89.8828 73.2483 90.349 73.2201 90.4232C73.1651 90.5682 72.8999 90.7083 72.6802 90.7083C72.6085 90.7083 72.5497 90.7315 72.5497 90.7599C72.5497 90.793 73.0136 90.8116 73.8383 90.8116C74.663 90.8116 75.1269 90.793 75.1269 90.7599C75.1269 90.7315 75.0682 90.7083 74.9964 90.7083C74.7601 90.7083 74.5151 90.5712 74.4716 90.4146C74.4493 90.3345 74.4311 89.3919 74.4311 88.3197V86.3703L74.5642 86.2369C74.6632 86.1377 74.7524 86.1026 74.9121 86.1004C75.0303 86.0988 75.1269 86.077 75.1269 86.0519C75.1269 86.0268 74.5469 86.0063 73.8353 86.0063C73.1249 86.0063 72.5558 86.026 72.5706 86.0501C72.5854 86.0741 72.6727 86.096 72.7645 86.0986C72.9894 86.105 73.1498 86.1986 73.2178 86.3631C73.2528 86.4477 73.2687 86.8123 73.2598 87.325L73.2456 88.1506L72.3523 88.1648L71.4589 88.1789L71.476 87.243C71.4926 86.3315 71.4963 86.3045 71.6148 86.2083C71.6872 86.1496 71.8164 86.1097 71.9339 86.1097C72.0424 86.1097 72.1457 86.0864 72.1632 86.058C72.1841 86.024 71.7514 86.0063 70.9034 86.0063C70.0258 86.0063 69.6118 86.0239 69.6118 86.0613ZM75.565 86.0663C75.6784 86.0933 75.8228 86.1261 75.8857 86.1391C76.1226 86.1877 76.132 86.2711 76.132 88.3315C76.132 89.3971 76.1138 90.3345 76.0915 90.4146C76.0462 90.5774 75.8009 90.7083 75.5409 90.7083C75.4549 90.7083 75.3847 90.7315 75.3847 90.7599C75.3847 90.793 75.8657 90.8116 76.7248 90.8116C77.9792 90.8116 78.4095 90.7636 77.8017 90.6914C77.657 90.6742 77.5064 90.6334 77.467 90.6006C77.3845 90.532 77.2735 90.1586 77.3085 90.0673C77.3215 90.0333 77.7231 89.4138 78.201 88.6906L79.07 87.3756L79.0859 87.7114C79.0947 87.8961 79.0947 88.5855 79.0859 89.2432C79.0675 90.6219 79.0651 90.6296 78.6246 90.6882C78.05 90.7647 78.4547 90.8116 79.6885 90.8116C80.9208 90.8116 81.327 90.7647 80.7542 90.6885C80.2767 90.625 80.3091 90.7746 80.2916 88.5553C80.2831 87.4802 80.2899 86.5247 80.3068 86.4322C80.345 86.2234 80.5066 86.1122 80.7877 86.1012C80.906 86.0965 81.0028 86.0733 81.0028 86.0495C81.0028 86.0257 80.4114 86.0063 79.6885 86.0063C78.9637 86.0063 78.3741 86.0268 78.3741 86.0519C78.3741 86.077 78.4688 86.0988 78.5846 86.1004C78.9361 86.1053 79.0958 86.2859 79.0958 86.6786C79.0958 86.7287 78.8381 87.1618 78.5231 87.641C78.2081 88.1202 77.8196 88.7147 77.6597 88.9622C77.4999 89.2096 77.3516 89.413 77.3304 89.4143C77.2752 89.4174 77.2847 86.7445 77.3409 86.5023C77.4053 86.2236 77.5328 86.1116 77.7979 86.1012C77.9188 86.0964 78.0298 86.0731 78.0444 86.0494C78.059 86.0257 77.4607 86.0087 76.7149 86.0116C75.7353 86.0155 75.4161 86.0307 75.565 86.0663ZM81.209 86.058C81.209 86.0864 81.2851 86.1097 81.3779 86.1097C81.6078 86.1097 81.7616 86.23 81.8253 86.46C81.8546 86.5657 81.8788 87.001 81.8791 87.4272C81.8794 87.8535 81.9026 88.285 81.9305 88.3861C81.9915 88.6057 82.1948 88.813 82.4573 88.9229C82.8547 89.0893 83.6844 88.9916 84.3681 88.6979L84.6109 88.5935V89.4889C84.6109 90.3165 84.6028 90.3946 84.504 90.5204C84.4453 90.5953 84.3467 90.6569 84.285 90.6573C84.1176 90.6584 83.9408 90.7141 83.9408 90.766C83.9408 90.8253 86.4516 90.8258 86.4881 90.7665C86.5035 90.7416 86.4046 90.7065 86.2684 90.6884C85.7883 90.6245 85.8221 90.7992 85.8221 88.3831C85.8221 86.3375 85.826 86.2536 85.9222 86.183C85.9772 86.1427 86.1048 86.1093 86.2057 86.1089C86.3066 86.1084 86.4239 86.0855 86.4664 86.058C86.5175 86.0248 86.1241 86.0079 85.3067 86.0079C84.4893 86.0079 84.0959 86.0248 84.147 86.058C84.1895 86.0855 84.2632 86.1084 84.3107 86.1089C84.3583 86.1093 84.4453 86.171 84.504 86.2458C84.6034 86.3725 84.6109 86.4489 84.6109 87.3464V88.311L84.3403 88.4105C84.1689 88.4735 83.9343 88.5104 83.7003 88.5112C83.3794 88.5122 83.3134 88.4958 83.1977 88.387L83.0646 88.2617V87.2911C83.0646 86.359 83.0691 86.3162 83.1774 86.215C83.2394 86.1571 83.3424 86.1097 83.4063 86.1097C83.4701 86.1097 83.5367 86.0864 83.5543 86.058C83.5751 86.0241 83.1768 86.0063 82.3976 86.0063C81.6395 86.0063 81.209 86.025 81.209 86.058ZM86.8272 86.058C86.8272 86.0864 86.9276 86.1097 87.0502 86.1097C87.2166 86.1097 87.3016 86.14 87.3853 86.2292C87.4964 86.3479 87.4973 86.3651 87.4973 88.3994C87.4973 90.7296 87.5189 90.616 87.0629 90.6845C86.5225 90.7658 86.9021 90.8116 88.1158 90.8116C88.9405 90.8116 89.4044 90.793 89.4044 90.7599C89.4044 90.7315 89.3407 90.7082 89.2626 90.7081C89.0479 90.7081 88.7681 90.5458 88.7281 90.3983C88.7089 90.3272 88.6908 89.8679 88.688 89.3778L88.6828 88.4865H89.5848H90.4868V89.4353C90.4868 90.3139 90.479 90.3943 90.3811 90.519C90.3028 90.6189 90.2094 90.6625 90.0203 90.6876C89.4443 90.7643 89.8392 90.8116 91.0538 90.8116C92.2586 90.8116 92.6472 90.7658 92.118 90.6862C91.9945 90.6677 91.8438 90.6061 91.7829 90.5492C91.6734 90.4469 91.6723 90.4257 91.6723 88.4046V86.3633L91.7989 86.2365C91.8914 86.1436 91.9812 86.1097 92.1339 86.1097C92.2485 86.1097 92.3423 86.0864 92.3423 86.058C92.3423 86.0249 91.8774 86.0063 91.0508 86.0063C90.2985 86.0063 89.7711 86.0257 89.7878 86.0528C89.8036 86.0784 89.8949 86.0993 89.9907 86.0993C90.2181 86.0993 90.3767 86.1878 90.4377 86.3487C90.4648 86.4198 90.4868 86.8602 90.4868 87.3272V88.1765H89.5848H88.6828L88.6831 87.3884C88.6834 86.2756 88.7444 86.1159 89.1742 86.0996C89.2748 86.0958 89.3692 86.0733 89.3839 86.0495C89.3985 86.0257 88.8293 86.0063 88.1189 86.0063C87.2921 86.0063 86.8272 86.0249 86.8272 86.058ZM92.7032 86.058C92.7457 86.0855 92.8458 86.1084 92.9257 86.1089C93.1478 86.1101 93.2605 86.1955 93.3191 86.4073C93.3514 86.524 93.3728 87.3229 93.3729 88.4235C93.3733 90.653 93.3884 90.5883 92.8449 90.6802C92.7386 90.6982 92.6516 90.7351 92.6516 90.7623C92.6516 90.8282 95.4554 90.8253 95.9135 90.7588C97.0832 90.5893 97.6198 89.5368 96.9417 88.7426C96.606 88.3495 96.0539 88.1789 95.1128 88.1773L94.5587 88.1765V87.2502V86.3238L94.6946 86.2167C94.7698 86.1575 94.9064 86.1097 95.0008 86.1097C95.0945 86.1097 95.1855 86.0864 95.203 86.058C95.224 86.024 94.7871 86.0066 93.9303 86.0071C93.0691 86.0076 92.6522 86.0249 92.7032 86.058ZM97.1616 86.058C97.1792 86.0864 97.286 86.1097 97.399 86.1097C97.5484 86.1097 97.639 86.1442 97.7309 86.2365L97.8575 86.3633V88.3738C97.8575 90.3227 97.8542 90.3884 97.7517 90.519C97.6735 90.6187 97.5801 90.6625 97.392 90.6875C96.8328 90.7619 97.2581 90.8116 98.4533 90.8116C99.6412 90.8116 100.014 90.7653 99.4774 90.6845C99.0215 90.616 99.043 90.7287 99.043 88.4066V86.3633L99.1696 86.2365C99.2621 86.1436 99.3519 86.1097 99.5046 86.1097C99.6192 86.1097 99.713 86.0864 99.713 86.058C99.713 86.0249 99.2481 86.0063 98.4214 86.0063C97.5735 86.0063 97.1407 86.024 97.1616 86.058ZM100.022 86.0468C100.022 86.069 100.127 86.0918 100.256 86.0973C100.568 86.111 100.682 86.1811 100.718 86.3815C100.735 86.4736 100.742 87.4242 100.733 88.494C100.716 90.7181 100.735 90.6267 100.273 90.6882C99.6981 90.7647 100.103 90.8116 101.336 90.8116C102.178 90.8116 102.651 90.793 102.651 90.7599C102.651 90.7315 102.599 90.7081 102.535 90.7079C102.471 90.7078 102.334 90.684 102.231 90.6551C102.033 90.6004 101.93 90.4275 101.93 90.1564C101.93 90.0531 102.867 88.552 103.514 87.6175L103.682 87.3758V88.9129C103.682 90.6768 103.696 90.6238 103.22 90.687C102.633 90.765 103.037 90.8116 104.301 90.8116C105.555 90.8116 105.968 90.7651 105.392 90.6885C105.062 90.6447 104.969 90.5668 104.916 90.2919C104.858 89.9932 104.858 86.7731 104.916 86.4744C104.97 86.196 105.075 86.1097 105.364 86.1097C105.484 86.1097 105.597 86.0864 105.615 86.058C105.636 86.024 105.185 86.0063 104.301 86.0063C103.416 86.0063 102.965 86.024 102.986 86.058C103.003 86.0864 103.121 86.1097 103.247 86.1097C103.561 86.1097 103.682 86.236 103.682 86.5629C103.682 86.795 103.632 86.8863 102.818 88.1243L101.955 89.4392L101.94 88.0456C101.932 87.2792 101.939 86.5753 101.956 86.4814C102.002 86.2247 102.145 86.1097 102.419 86.1097C102.547 86.1097 102.651 86.0864 102.651 86.058C102.651 86.0248 102.178 86.0063 101.336 86.0063C100.614 86.0063 100.022 86.0245 100.022 86.0468ZM50.636 86.2606C50.9079 86.3997 51.1267 86.6646 51.2655 87.0225C51.366 87.2817 51.3855 87.4473 51.4053 88.2057C51.4302 89.1604 51.3899 89.4802 51.1904 89.9116C50.9701 90.3881 50.5844 90.657 50.1225 90.6563C49.2473 90.6548 48.7883 89.8681 48.7883 88.3693C48.7883 87.449 48.9821 86.8018 49.3695 86.4292C49.7007 86.1106 50.21 86.0428 50.636 86.2606ZM32.0367 87.1172V87.453H36.4952H40.9537V87.1172V86.7814H36.4952H32.0367V87.1172ZM106.981 87.1172V87.453H111.439H115.898V87.1172V86.7814H111.439H106.981V87.1172ZM95.2451 88.5613C95.6622 88.7105 95.8668 89.0512 95.867 89.5974C95.8672 90.1409 95.6626 90.4498 95.239 90.5452C94.9455 90.6113 94.6962 90.5408 94.6185 90.3698C94.5807 90.2867 94.5587 89.9165 94.5587 89.3624V88.4865L94.8036 88.4887C94.9382 88.49 95.1369 88.5226 95.2451 88.5613ZM32.0367 89.5198V89.8298H36.4952H40.9537V89.5198V89.2098H36.4952H32.0367V89.5198ZM106.981 89.5198V89.8298H111.439H115.898V89.5198V89.2098H111.439H106.981V89.5198ZM93.7482 94.0397C92.4162 94.4152 91.5716 95.6554 91.7757 96.9363C91.9765 98.1966 92.9886 98.9733 94.4299 98.974C95.1419 98.974 95.6652 98.7909 96.1574 98.3688C96.3266 98.2235 96.3627 98.1594 96.3627 98.0054V97.8184L96.1952 97.9745C95.6283 98.503 95.1699 98.6917 94.5545 98.6511C94.1117 98.6215 93.8465 98.5085 93.5979 98.2434C93.2396 97.8622 93.0659 97.2782 93.0647 96.451C93.0632 95.3562 93.3832 94.7161 94.0948 94.3904C94.8971 94.0231 95.8098 94.4105 96.1869 95.2782C96.2679 95.4644 96.3521 95.6169 96.3743 95.6169C96.3962 95.6169 96.4143 95.2448 96.4143 94.7902C96.4143 93.961 96.3819 93.8267 96.2493 94.1056C96.1553 94.3031 95.9404 94.3123 95.4482 94.1399C94.9523 93.9663 94.1719 93.9203 93.7482 94.0397ZM55.5111 94.0932C55.2205 94.221 55.0042 94.5251 54.8478 95.0252C54.5033 96.1268 54.4431 96.2082 53.9309 96.2632C53.7434 96.2833 53.565 96.2843 53.5344 96.2653C53.4676 96.2239 53.4616 94.9285 53.5265 94.5914C53.5826 94.3004 53.6726 94.2163 53.9631 94.1835C54.0936 94.1687 54.2003 94.1364 54.2003 94.1118C54.2003 94.087 53.6205 94.0668 52.9118 94.0668C52.2031 94.0668 51.6232 94.087 51.6232 94.1118C51.6232 94.1364 51.7299 94.1687 51.8605 94.1835C52.2873 94.2317 52.2656 94.116 52.282 96.4376C52.2987 98.7957 52.3151 98.7041 51.866 98.7551C51.7324 98.7695 51.6232 98.8026 51.6232 98.8274C51.6232 98.8521 52.2031 98.8721 52.9118 98.8721C53.6205 98.8721 54.2003 98.8521 54.2003 98.8274C54.2003 98.8026 54.0934 98.7702 53.9626 98.7551C53.5288 98.7062 53.5073 98.6531 53.4865 97.5737C53.4765 97.0529 53.4893 96.619 53.5156 96.5927C53.5439 96.5643 53.6248 96.5673 53.719 96.6003C53.8889 96.6596 53.9819 96.8029 54.7067 98.1229L55.104 98.846L55.9407 98.8604C56.4217 98.8687 56.7775 98.8542 56.7775 98.8274C56.7775 98.8012 56.698 98.7654 56.6008 98.7468C56.3299 98.6958 56.1708 98.5023 55.6685 97.6122C55.2398 96.8525 54.9363 96.4447 54.7981 96.4428C54.767 96.4424 54.7093 96.4215 54.6698 96.3965C54.6108 96.359 54.6185 96.3221 54.7129 96.1893C54.776 96.1005 54.9291 95.7202 55.0532 95.3443C55.216 94.8507 55.3157 94.6288 55.4124 94.5447C55.6471 94.3409 55.7177 94.3819 55.8157 94.7793C55.8864 95.0656 56.061 95.1818 56.3416 95.129C56.8381 95.0356 56.8442 94.3362 56.3506 94.1014C56.1361 93.9994 55.7332 93.9955 55.5111 94.0932ZM58.7239 94.1155C58.3274 94.2425 57.9675 94.4817 57.652 94.8278C57.2201 95.3014 57.0353 95.7855 57.0353 96.4421C57.0353 97.4403 57.5262 98.2848 58.3359 98.68C58.7967 98.9045 59.1242 98.9754 59.7062 98.9754C60.7755 98.9754 61.6185 98.4789 62.0319 97.6061C62.5087 96.5992 62.3327 95.4602 61.5852 94.7168C61.057 94.1915 60.5551 94.0135 59.6145 94.0179C59.1857 94.0199 58.9371 94.0472 58.7239 94.1155ZM90.2012 94.1122C89.8325 94.2801 89.6337 94.6275 89.3729 95.5597C89.3146 95.7683 89.2223 95.9519 89.1224 96.0581C88.9857 96.2034 88.9177 96.2311 88.6215 96.263C88.4329 96.2832 88.2536 96.2843 88.223 96.2653C88.1562 96.2239 88.1502 94.9285 88.2152 94.5914C88.2712 94.3004 88.3613 94.2163 88.6517 94.1835C88.7822 94.1687 88.8889 94.1364 88.8889 94.1118C88.8889 94.087 88.3091 94.0668 87.6004 94.0668C86.7757 94.0668 86.3118 94.0854 86.3118 94.1184C86.3118 94.1469 86.3799 94.1702 86.4631 94.1702C86.7187 94.1702 86.879 94.2614 86.9586 94.4523C87.0729 94.7265 87.0685 98.2923 86.9536 98.5154C86.8671 98.6828 86.7011 98.7688 86.4631 98.7688C86.3799 98.7688 86.3118 98.7922 86.3118 98.8205C86.3118 98.8535 86.7757 98.8721 87.6004 98.8721C88.4251 98.8721 88.8889 98.8535 88.8889 98.8205C88.8889 98.7922 88.8136 98.7681 88.7214 98.7681C88.4727 98.7668 88.3038 98.6593 88.2347 98.4576C88.1638 98.2503 88.1451 96.7138 88.2122 96.6077C88.2479 96.5512 88.286 96.5521 88.4305 96.6126C88.582 96.6761 88.6748 96.8103 89.1207 97.611C89.4041 98.1202 89.6735 98.6056 89.7195 98.691L89.8031 98.846L90.6346 98.8604C91.1772 98.8694 91.4662 98.8563 91.4662 98.8219C91.4662 98.7922 91.4167 98.7688 91.3563 98.7688C91.0894 98.7688 90.9192 98.5753 90.4337 97.7218C89.8509 96.6967 89.7544 96.5636 89.5152 96.4548C89.4117 96.4077 89.3201 96.3654 89.3117 96.3608C89.3032 96.3562 89.3554 96.2651 89.4277 96.1583C89.4999 96.0515 89.6313 95.7291 89.7195 95.4417C89.919 94.7926 90.043 94.5439 90.2039 94.4705C90.3594 94.3995 90.4868 94.487 90.4868 94.6648C90.4868 95.1072 90.9658 95.2954 91.2986 94.984C91.5383 94.7597 91.3804 94.2369 91.0285 94.0895C90.7875 93.9886 90.4526 93.9977 90.2012 94.1122ZM62.7565 94.1173C62.7565 94.1463 62.8272 94.1702 62.9138 94.1702C63.1042 94.1702 63.3508 94.2906 63.3946 94.405C63.4122 94.451 63.4266 95.3726 63.4266 96.453V98.4177L63.2513 98.5932C63.1274 98.7172 63.0293 98.7688 62.9163 98.7688C62.8285 98.7688 62.7565 98.7922 62.7565 98.8205C62.7565 98.8528 63.0658 98.8721 63.5812 98.8721C64.0967 98.8721 64.4059 98.8528 64.4059 98.8205C64.4059 98.7922 64.3588 98.7688 64.3012 98.7688C64.1045 98.7688 63.8461 98.6229 63.765 98.4652C63.6961 98.3316 63.6843 98.035 63.6843 96.4358C63.6843 95.3009 63.7029 94.5821 63.7315 94.6119C63.77 94.652 64.6187 96.5335 65.4659 98.4576C65.5595 98.6704 65.6568 98.8508 65.6822 98.859C65.736 98.8776 65.7388 98.8714 66.2633 97.6579C67.2388 95.4 67.6055 94.5624 67.6285 94.5393C67.642 94.5257 67.6532 95.4111 67.6532 96.5068C67.6532 98.7874 67.6688 98.7048 67.2259 98.7551C67.0924 98.7695 66.9831 98.8026 66.9831 98.8274C66.9831 98.8521 67.5643 98.8721 68.2747 98.8721C69.1226 98.8721 69.5554 98.8542 69.5344 98.8205C69.5169 98.7922 69.4332 98.7688 69.3485 98.7688C69.1606 98.7688 68.9142 98.6476 68.8706 98.534C68.8109 98.3777 68.8344 94.546 68.8958 94.4108C68.9652 94.2582 69.1432 94.1702 69.3822 94.1702C69.4801 94.1702 69.5603 94.1469 69.5603 94.1184C69.5603 94.0857 69.1871 94.0671 68.5423 94.0677L67.5243 94.0685L66.9846 95.3465C66.6876 96.0494 66.3828 96.7635 66.3072 96.9336L66.1696 97.2427L66.014 96.9077C65.9284 96.7235 65.7418 96.3054 65.5992 95.9786C65.4567 95.6517 65.2121 95.0937 65.0556 94.7385L64.7711 94.0926L63.7638 94.0786C63.1036 94.0694 62.7565 94.0828 62.7565 94.1173ZM69.818 94.1184C69.818 94.1469 69.8976 94.1702 69.995 94.1702C70.293 94.1702 70.4251 94.249 70.4885 94.4649C70.5279 94.5988 70.541 95.2813 70.53 96.6161L70.5138 98.5712L70.3921 98.6697C70.3197 98.7289 70.1905 98.7688 70.073 98.7688C69.9645 98.7688 69.8612 98.7922 69.8437 98.8205C69.8228 98.8542 70.2555 98.8721 71.1035 98.8721C71.9302 98.8721 72.3951 98.8535 72.3951 98.8205C72.3951 98.7922 72.3049 98.7688 72.1946 98.7688C72.0741 98.7688 71.9457 98.7296 71.8725 98.6697L71.7508 98.5712L71.7357 96.474L71.7207 94.3768H72.5991H73.4776V96.4459V98.5147L73.351 98.6421C73.2584 98.7351 73.1686 98.7688 73.0159 98.7688C72.9013 98.7688 72.8075 98.7922 72.8075 98.8205C72.8075 98.8535 73.2714 98.8721 74.096 98.8721C74.9208 98.8721 75.3847 98.8535 75.3847 98.8205C75.3847 98.7922 75.3045 98.7688 75.2066 98.7688C74.9199 98.7688 74.7722 98.6731 74.7119 98.4486C74.6779 98.3226 74.6639 97.5497 74.6735 96.3402C74.6885 94.4692 74.691 94.4291 74.799 94.3208C74.8669 94.2528 75.0004 94.2001 75.1469 94.1836C75.2776 94.1688 75.3847 94.1364 75.3847 94.1118C75.3847 94.0868 74.1451 94.0668 72.6013 94.0668C70.7801 94.0668 69.818 94.0846 69.818 94.1184ZM76.8794 94.1118C76.8794 94.1366 76.9963 94.1724 77.1391 94.1914C77.5159 94.2414 77.5839 94.3337 77.627 94.8531C77.6795 95.4854 77.5772 97.3861 77.4721 97.7288C77.3547 98.1119 76.9852 98.5106 76.7471 98.5106C76.5863 98.5106 76.5732 98.4961 76.497 98.2331C76.3995 97.8967 76.3108 97.8151 76.0428 97.8151C75.5075 97.8151 75.4223 98.6036 75.9314 98.8453C76.191 98.9692 76.6091 98.9458 76.9196 98.7909C77.2173 98.6421 77.3941 98.4555 77.5723 98.1023C77.8097 97.6321 77.8252 97.5132 77.8555 95.9269L77.8845 94.4026L78.4901 94.3881L79.0958 94.3736V96.4444V98.5154L78.9594 98.6421C78.871 98.7241 78.7622 98.7688 78.6501 98.7688C78.555 98.7688 78.4772 98.7922 78.4772 98.8205C78.4772 98.8535 78.924 98.8721 79.7142 98.8721C80.5046 98.8721 80.9513 98.8535 80.9513 98.8205C80.9513 98.7922 80.8806 98.7688 80.7941 98.7688C80.5783 98.7688 80.3523 98.6421 80.3143 98.4996C80.2539 98.2737 80.2773 94.5454 80.3399 94.4076C80.3973 94.2813 80.6147 94.1702 80.8044 94.1702C80.8568 94.1702 80.8998 94.1469 80.8998 94.1184C80.8998 94.0848 80.1953 94.0668 78.8896 94.0668C77.782 94.0668 76.8794 94.087 76.8794 94.1118ZM81.3121 94.1184C81.3121 94.1469 81.3828 94.1702 81.4693 94.1702C81.6598 94.1702 81.9064 94.2906 81.9502 94.405C81.9678 94.451 81.9822 95.3945 81.9822 96.5019V98.5147L81.8556 98.6421C81.763 98.7351 81.6733 98.7688 81.5206 98.7688C81.4059 98.7688 81.3121 98.7922 81.3121 98.8205C81.3121 98.8542 82.0587 98.8721 83.4488 98.8721H85.5855L85.6138 98.7041C85.6572 98.4459 85.7964 97.4642 85.7964 97.4162C85.7964 97.2844 85.6814 97.413 85.5631 97.6773C85.3994 98.0431 85.1385 98.3095 84.7913 98.4665C84.5915 98.5567 84.4117 98.5877 83.9917 98.6036C83.5076 98.6222 83.4362 98.6132 83.3216 98.5202C83.1952 98.4177 83.1932 98.4039 83.1763 97.5075C83.1569 96.4751 83.1523 96.4858 83.5567 96.5994C83.8474 96.6809 84.0646 96.9215 84.1705 97.2789C84.2143 97.4266 84.2501 97.5781 84.2501 97.6156C84.2501 97.653 84.2849 97.6837 84.3275 97.6837C84.3942 97.6837 84.4044 97.5212 84.401 96.5082C84.3988 95.8616 84.3856 95.292 84.3716 95.2423C84.3257 95.0787 84.2716 95.1473 84.209 95.4489C84.0951 95.9974 83.8104 96.288 83.3867 96.2884L83.1676 96.2886V95.3V94.3115L83.8313 94.3354C84.4371 94.3574 84.5158 94.3717 84.7337 94.4997C85.0068 94.6602 85.1098 94.7977 85.2354 95.1697C85.3894 95.6258 85.4356 95.5334 85.4356 94.7686V94.0668H83.3738C82.0337 94.0668 81.3121 94.0848 81.3121 94.1184ZM60.154 94.3181C60.6171 94.5291 60.8771 95.0438 60.9633 95.9208C61.0282 96.5808 60.9575 97.4312 60.804 97.8387C60.5851 98.4197 60.1803 98.7351 59.6597 98.7303C58.7549 98.7227 58.2669 97.8096 58.3408 96.2628C58.3917 95.1973 58.622 94.6533 59.1485 94.3546C59.4336 94.1929 59.8461 94.1779 60.154 94.3181Z" fill="white"/>
<defs>
<linearGradient id="paint0_linear_109_142" x1="-44.2603" y1="-165.779" x2="445.895" y2="234.102" gradientUnits="userSpaceOnUse">
<stop offset="0.0517495" stop-color="#71390A"/>
<stop offset="0.29694" stop-color="#D6875D"/>
<stop offset="0.479167" stop-color="#EDC9AF"/>
<stop offset="0.635417" stop-color="#D6875D"/>
<stop offset="0.994792" stop-color="#71390A"/>
</linearGradient>
</defs>
</svg>
