<svg width="22" height="18" viewBox="0 0 22 18" fill="none" xmlns="http://www.w3.org/2000/svg">
<path fill-rule="evenodd" clip-rule="evenodd" d="M1.84 4.40003H20.16C21.16 4.40003 22 3.56003 22 2.56003C22 1.56003 21.16 0.720032 20.16 0.720032H1.84C0.84 0.720032 0 1.56003 0 2.56003C0 3.60003 0.84 4.40003 1.84 4.40003ZM20.16 7.16003H1.84C0.84 7.16003 0 8.00003 0 9.00003C0 10 0.84 10.84 1.84 10.84H20.16C21.16 10.84 22 10 22 9.00003C22 8.00003 21.16 7.16003 20.16 7.16003ZM20.16 13.6H1.84C0.84 13.6 0 14.44 0 15.44C0 16.44 0.84 17.28 1.84 17.28H20.16C21.16 17.28 22 16.44 22 15.44C22 14.4 21.16 13.6 20.16 13.6Z" fill="#296DCB"/>
</svg>
