<svg width="103" height="41" viewBox="0 0 103 41" fill="none" xmlns="http://www.w3.org/2000/svg">
<path d="M0.490234 0.500014H5.35023V17.54H15.8802V21.5H0.490234V0.500014Z" fill="black"/>
<path d="M28.4141 21.86C26.2341 21.86 24.2641 21.39 22.5041 20.45C20.7641 19.51 19.3941 18.22 18.3941 16.58C17.4141 14.92 16.9241 13.06 16.9241 11C16.9241 8.94001 17.4141 7.09001 18.3941 5.45001C19.3941 3.79001 20.7641 2.49001 22.5041 1.55001C24.2641 0.610015 26.2341 0.140015 28.4141 0.140015C30.5941 0.140015 32.5541 0.610015 34.2941 1.55001C36.0341 2.49001 37.4041 3.79001 38.4041 5.45001C39.4041 7.09001 39.9041 8.94001 39.9041 11C39.9041 13.06 39.4041 14.92 38.4041 16.58C37.4041 18.22 36.0341 19.51 34.2941 20.45C32.5541 21.39 30.5941 21.86 28.4141 21.86ZM28.4141 17.72C29.6541 17.72 30.7741 17.44 31.7741 16.88C32.7741 16.3 33.5541 15.5 34.1141 14.48C34.6941 13.46 34.9841 12.3 34.9841 11C34.9841 9.70001 34.6941 8.54001 34.1141 7.52001C33.5541 6.50001 32.7741 5.71001 31.7741 5.15001C30.7741 4.57001 29.6541 4.28001 28.4141 4.28001C27.1741 4.28001 26.0541 4.57001 25.0541 5.15001C24.0541 5.71001 23.2641 6.50001 22.6841 7.52001C22.1241 8.54001 21.8441 9.70001 21.8441 11C21.8441 12.3 22.1241 13.46 22.6841 14.48C23.2641 15.5 24.0541 16.3 25.0541 16.88C26.0541 17.44 27.1741 17.72 28.4141 17.72Z" fill="black"/>
<path d="M57.7466 10.67H62.1866V21.5H58.5266V20.24C57.0666 21.32 55.1866 21.86 52.8866 21.86C50.9466 21.86 49.1666 21.44 47.5466 20.6C45.9266 19.76 44.6366 18.54 43.6766 16.94C42.7166 15.32 42.2366 13.4 42.2366 11.18C42.2366 9.04001 42.7266 7.14001 43.7066 5.48001C44.7066 3.80001 46.0866 2.49001 47.8466 1.55001C49.6066 0.610015 51.5866 0.140015 53.7866 0.140015C55.6266 0.140015 57.2966 0.450014 58.7966 1.07001C60.2966 1.69001 61.5566 2.59001 62.5766 3.77001L59.4566 6.65001C57.9566 5.07001 56.1466 4.28001 54.0266 4.28001C52.6866 4.28001 51.4966 4.57001 50.4566 5.15001C49.4166 5.71001 48.6066 6.51001 48.0266 7.55001C47.4466 8.59001 47.1566 9.79001 47.1566 11.15C47.1566 12.57 47.4366 13.78 47.9966 14.78C48.5766 15.78 49.3466 16.54 50.3066 17.06C51.2666 17.56 52.3166 17.81 53.4566 17.81C55.1566 17.81 56.5866 17.33 57.7466 16.37V10.67Z" fill="black"/>
<path d="M76.8712 21.86C74.6912 21.86 72.7212 21.39 70.9612 20.45C69.2212 19.51 67.8512 18.22 66.8512 16.58C65.8712 14.92 65.3812 13.06 65.3812 11C65.3812 8.94001 65.8712 7.09001 66.8512 5.45001C67.8512 3.79001 69.2212 2.49001 70.9612 1.55001C72.7212 0.610015 74.6912 0.140015 76.8712 0.140015C79.0512 0.140015 81.0112 0.610015 82.7512 1.55001C84.4912 2.49001 85.8612 3.79001 86.8612 5.45001C87.8612 7.09001 88.3612 8.94001 88.3612 11C88.3612 13.06 87.8612 14.92 86.8612 16.58C85.8612 18.22 84.4912 19.51 82.7512 20.45C81.0112 21.39 79.0512 21.86 76.8712 21.86ZM76.8712 17.72C78.1112 17.72 79.2312 17.44 80.2312 16.88C81.2312 16.3 82.0112 15.5 82.5712 14.48C83.1512 13.46 83.4412 12.3 83.4412 11C83.4412 9.70001 83.1512 8.54001 82.5712 7.52001C82.0112 6.50001 81.2312 5.71001 80.2312 5.15001C79.2312 4.57001 78.1112 4.28001 76.8712 4.28001C75.6312 4.28001 74.5112 4.57001 73.5112 5.15001C72.5112 5.71001 71.7212 6.50001 71.1412 7.52001C70.5812 8.54001 70.3012 9.70001 70.3012 11C70.3012 12.3 70.5812 13.46 71.1412 14.48C71.7212 15.5 72.5112 16.3 73.5112 16.88C74.5112 17.44 75.6312 17.72 76.8712 17.72Z" fill="black"/>
<path d="M60.9513 31.94C62.0286 31.94 62.8819 32.2547 63.5113 32.884C64.1513 33.5027 64.4713 34.4147 64.4713 35.62V40.5H62.9353V35.796C62.9353 34.9747 62.7379 34.356 62.3433 33.94C61.9486 33.524 61.3833 33.316 60.6473 33.316C59.8153 33.316 59.1593 33.5613 58.6793 34.052C58.1993 34.532 57.9593 35.2253 57.9593 36.132V40.5H56.4233V32.02H57.8953V33.3C58.2046 32.8627 58.6206 32.5267 59.1433 32.292C59.6766 32.0573 60.2793 31.94 60.9513 31.94Z" fill="black"/>
<path d="M75.3608 32.02V40.5H73.8888V39.156C73.5474 39.6253 73.1154 39.9827 72.5928 40.228C72.0701 40.4734 71.4941 40.596 70.8648 40.596C70.0434 40.596 69.3074 40.4147 68.6568 40.052C68.0061 39.6893 67.4941 39.1827 67.1208 38.532C66.7581 37.8707 66.5768 37.1133 66.5768 36.26C66.5768 35.4067 66.7581 34.6547 67.1208 34.004C67.4941 33.3533 68.0061 32.8467 68.6568 32.484C69.3074 32.1213 70.0434 31.94 70.8648 31.94C71.4728 31.94 72.0328 32.0573 72.5448 32.292C73.0568 32.516 73.4834 32.852 73.8248 33.3V32.02H75.3608ZM70.9928 39.252C71.5261 39.252 72.0114 39.1293 72.4488 38.884C72.8861 38.628 73.2274 38.276 73.4728 37.828C73.7181 37.3693 73.8408 36.8467 73.8408 36.26C73.8408 35.6733 73.7181 35.156 73.4728 34.708C73.2274 34.2493 72.8861 33.8974 72.4488 33.652C72.0114 33.4067 71.5261 33.284 70.9928 33.284C70.4488 33.284 69.9581 33.4067 69.5208 33.652C69.0941 33.8974 68.7528 34.2493 68.4968 34.708C68.2514 35.156 68.1288 35.6733 68.1288 36.26C68.1288 36.8467 68.2514 37.3693 68.4968 37.828C68.7528 38.276 69.0941 38.628 69.5208 38.884C69.9581 39.1293 70.4488 39.252 70.9928 39.252Z" fill="black"/>
<path d="M88.875 31.94C89.9417 31.94 90.7843 32.2493 91.403 32.868C92.0323 33.4867 92.347 34.404 92.347 35.62V40.5H90.811V35.796C90.811 34.9747 90.619 34.356 90.235 33.94C89.8617 33.524 89.323 33.316 88.619 33.316C87.8404 33.316 87.2217 33.5613 86.763 34.052C86.3044 34.532 86.075 35.2253 86.075 36.132V40.5H84.539V35.796C84.539 34.9747 84.347 34.356 83.963 33.94C83.5897 33.524 83.051 33.316 82.347 33.316C81.5684 33.316 80.9497 33.5613 80.491 34.052C80.0324 34.532 79.803 35.2253 79.803 36.132V40.5H78.267V32.02H79.739V33.284C80.0484 32.8467 80.4537 32.516 80.955 32.292C81.4564 32.0573 82.027 31.94 82.667 31.94C83.3283 31.94 83.915 32.0733 84.427 32.34C84.939 32.6067 85.3337 32.996 85.611 33.508C85.931 33.0173 86.3737 32.6333 86.939 32.356C87.515 32.0787 88.1603 31.94 88.875 31.94Z" fill="black"/>
<path d="M99.0441 39.252C100.057 39.252 100.873 38.9107 101.492 38.228L102.324 39.22C101.951 39.668 101.476 40.0093 100.9 40.244C100.335 40.4787 99.7001 40.596 98.9961 40.596C98.1001 40.596 97.3055 40.4147 96.6121 40.052C95.9188 39.6787 95.3801 39.1614 94.9961 38.5C94.6228 37.8387 94.4361 37.092 94.4361 36.26C94.4361 35.4387 94.6175 34.6973 94.9801 34.036C95.3535 33.3747 95.8601 32.8627 96.5001 32.5C97.1508 32.1267 97.8815 31.94 98.6921 31.94C99.4601 31.94 100.159 32.116 100.788 32.468C101.417 32.8093 101.919 33.2947 102.292 33.924C102.665 34.5533 102.857 35.2787 102.868 36.1L96.1321 37.412C96.3455 37.9987 96.7028 38.452 97.2041 38.772C97.7161 39.092 98.3295 39.252 99.0441 39.252ZM98.6921 33.236C98.1588 33.236 97.6788 33.3587 97.2521 33.604C96.8361 33.8493 96.5108 34.196 96.2761 34.644C96.0415 35.0813 95.9241 35.5933 95.9241 36.18V36.34L101.348 35.316C101.209 34.6973 100.9 34.196 100.42 33.812C99.9401 33.428 99.3641 33.236 98.6921 33.236Z" fill="black"/>
</svg>
